[img]http://i.imgur.com/Wsg1E.jpg[/img]

[code]
Back.To.1942.2012.R6.XViD-26k
 
http://www.imdb.com/title/tt2113822/

Plot:

A deadly drought in 1942 takes its toll on central China's Henan province during the war against Japan.

Sources - VIDEO: Remembering.1942.Project.2012.DVDScr.Xvid-SmY ..... thanks .... :P
          AUDIO: Remembering.1942.Project.2012.DVDScr.Xvid-SmY ..... thanks .... :P
          SUB:   Yes... Has English HC Subs when needed.. also has Chinese HC subs.. 
  
Format                                   : AVI
Format/Info                              : Audio Video Interleave
File size                                : 1.53 GiB
Duration                                 : 2h 7mn
Overall bit rate                         : 1 719 Kbps
Writing library                          : VirtualDub build 32839/release

Video
ID                                       : 0
Format                                   : MPEG-4 Visual
Format profile                           : Advanced Simple@L5
Format settings, BVOP                    : 2
Format settings, QPel                    : Yes
Format settings, GMC                     : No warppoints
Format settings, Matrix                  : Default (H.263)
Muxing mode                              : Packed bitstream
Codec ID                                 : XVID
Codec ID/Hint                            : XviD
Duration                                 : 2h 7mn
Bit rate                                 : 1 580 Kbps
Width                                    : 720 pixels
Height                                   : 368 pixels
Display aspect ratio                     : 1.957
Frame rate                               : 29.970 fps
Color space                              : YUV
Chroma subsampling                       : 4:2:0
Bit depth                                : 8 bits
Scan type                                : Progressive
Compression mode                         : Lossy
Bits/(Pixel*Frame)                       : 0.199
Stream size                              : 1.41 GiB (92%)
Writing library                          : XviD 64

Audio
ID                                       : 1
Format                                   : MPEG Audio
Format version                           : Version 1
Format profile                           : Layer 3
Mode                                     : Joint stereo
Mode extension                           : MS Stereo
Codec ID                                 : 55
Codec ID/Hint                            : MP3
Duration                                 : 2h 7mn
Bit rate mode                            : Constant
Bit rate                                 : 128 Kbps
Channel(s)                               : 2 channels
Sampling rate                            : 48.0 KHz
Compression mode                         : Lossy
Stream size                              : 117 MiB (7%)
Alignment                                : Split accross interleaves
Interleave, duration                     : 33 ms (1.00 video frame)


Notes -

Slight crop, resize, major colors overhaul as was lifeless and everywhere so did what we could to make it
better then jsut muxed the audio back to it.. enjoy :)

[/code]

Screens:

[img]http://i.imgur.com/zt7OJ.png[/img]
[img]http://i.imgur.com/Ejywh.png[/img]
[img]http://i.imgur.com/QIFQ2.png[/img]
[img]http://i.imgur.com/ceyVc.png[/img]
[img]http://i.imgur.com/rk7U3.jpg[/img]
[img]http://imageshack.us/a/img685/6206/41318329.png[/img]
[img]http://imageshack.us/a/img145/7708/29179963.png[/img]
[img]http://imageshack.us/a/img547/9173/94512611.png[/img]
[img]http://imageshack.us/a/img41/4351/49553767.png[/img]
[img]http://imageshack.us/a/img248/5813/10950553.png[/img]

Greetz:
XtremeEncode|CM8|RX|VISION|HDSCENE|xTriLL|ADTRG|CRYS|REMIXHD|HS|Tommiecook
BIDA|RX|REFILL|INSPiRAL|AXED|HOPE|Anonymous|GooN|NOIR|Blackjesus|Gabroo Punjab Deh
|UNiQUE|RESiSTANCE|TRiNiTY|LEGION

To all the people who have helped me, you know who you are

Anything to offer email us @: 26k@hushmail.me 